<svg xmlns="http://www.w3.org/2000/svg" viewBox="0 0 512 512" class="fa-robot" width="100" height="100">
  <path d="M392 0H120C92.7 0 72 20.7 72 46.5V213C72 228.8 88.4 240 104.6 240H129.1C155.3 240 175 266.7 175 294.4V384H56.4C42.9 384 32 395.7 32 409.9V431C32 441.5 42.4 448 51.9 448H460.1C469.6 448 480 441.5 480 431V409.9C480 395.7 469.1 384 455.6 384H336V294.4C336 266.7 355.7 240 381.9 240H406.4C422.6 240 440 228.8 440 213V46.5C440 20.7 419.3 0 392 0zM224 256C206.7 256 192 269.3 192 288C192 306.7 206.7 320 224 320C241.3 320 256 306.7 256 288C256 269.3 241.3 256 224 256zM288 128C288 146.7 274.7 160 256 160C237.3 160 224 146.7 224 128C224 109.3 237.3 96 256 96C274.7 96 288 109.3 288 128zM144 128C144 146.7 130.7 160 112 160C93.3 160 80 146.7 80 128C80 109.3 93.3 96 112 96C130.7 96 144 109.3 144 128zM56 332.4C56 325.7 60.8 318.6 66.4 314.1C72.1 309.6 80.7 306.4 88.5 306.4H423.5C431.3 306.4 439.9 309.6 445.6 314.1C451.2 318.6 456 325.7 456 332.4C456 339.2 451.2 346.3 445.6 350.8C439.9 355.3 431.3 358.4 423.5 358.4H88.5C80.7 358.4 72.1 355.3 66.4 350.8C60.8 346.3 56 339.2 56 332.4zM320 128C320 109.3 333.3 96 352 96C370.7 96 384 109.3 384 128C384 146.7 370.7 160 352 160C333.3 160 320 146.7 320 128z"/>
</svg>